<?xml version="1.0" standalone="no"?>
<!DOCTYPE svg PUBLIC "-//W3C//DTD SVG 20010904//EN"
 "http://www.w3.org/TR/2001/REC-SVG-20010904/DTD/svg10.dtd">
<svg version="1.0" xmlns="http://www.w3.org/2000/svg"
 width="96.000000pt" height="96.000000pt" viewBox="0 0 96.000000 96.000000"
 preserveAspectRatio="xMidYMid meet">
<metadata>
Created by potrace 1.14, written by Peter Selinger 2001-2017
</metadata>
<g transform="translate(0.000000,96.000000) scale(0.100000,-0.100000)"
fill="#000000" stroke="none">
<path d="M300 816 c-5 -13 -12 -40 -16 -60 -5 -28 -26 -56 -85 -116 l-79 -79
0 -165 c0 -169 4 -196 36 -231 39 -42 62 -45 364 -45 l289 0 20 26 c16 21 18
30 10 52 -6 15 -16 30 -22 34 -7 4 -59 8 -117 8 -97 0 -103 1 -82 16 27 18 28
54 4 84 -18 23 -18 24 0 42 24 24 23 53 -2 78 -20 20 -20 20 0 40 11 11 20 29
20 40 0 11 -9 29 -20 40 -18 18 -33 20 -134 20 l-114 0 13 44 c20 66 15 164
-9 182 -31 22 -65 18 -76 -10z"/>
</g>
</svg>
